<svg xmlns="http://www.w3.org/2000/svg" xmlns:xlink="http://www.w3.org/1999/xlink" version="1.1" width="1000" height="1000" viewBox="0 0 1000 1000" xml:space="preserve">
<desc>Created with Fabric.js 3.5.0</desc>
<defs>
</defs>
<rect x="0" y="0" width="100%" height="100%" fill="#ffffff"/>
<g transform="matrix(9.0909 0 0 9.0909 518.1816 491.6199)" id="467604">
<path style="stroke: none; stroke-width: 1; stroke-dasharray: none; stroke-linecap: butt; stroke-dashoffset: 0; stroke-linejoin: miter; stroke-miterlimit: 4; is-custom-font: none; font-file-url: none; fill: rgb(163,163,205); fill-rule: nonzero; opacity: 1;" transform=" translate(-52, -50)" d="M 52 26.75 A 23.25 23.25 0 1 0 52 73.25 A 23.25 23.25 0 1 0 52 26.75 Z" stroke-linecap="round"/>
</g>
<g transform="matrix(9.0909 0 0 9.0909 518.1816 491.6199)" id="433344">
<path style="stroke: none; stroke-width: 1; stroke-dasharray: none; stroke-linecap: butt; stroke-dashoffset: 0; stroke-linejoin: miter; stroke-miterlimit: 4; is-custom-font: none; font-file-url: none; fill: rgb(71,43,41); fill-rule: nonzero; opacity: 1;" transform=" translate(-52, -50)" d="M 52 73.95 c -13.206 0 -23.95 -10.744 -23.95 -23.95 S 38.794 26.05 52 26.05 S 75.95 36.794 75.95 50 S 65.206 73.95 52 73.95 z M 52 27.45 c -12.434 0 -22.55 10.115 -22.55 22.55 S 39.566 72.55 52 72.55 S 74.55 62.435 74.55 50 S 64.434 27.45 52 27.45 z" stroke-linecap="round"/>
</g>
<g transform="matrix(9.0909 0 0 9.0909 518.1816 491.6199)" id="425963">
<path style="stroke: none; stroke-width: 1; stroke-dasharray: none; stroke-linecap: butt; stroke-dashoffset: 0; stroke-linejoin: miter; stroke-miterlimit: 4; is-custom-font: none; font-file-url: none; fill: rgb(86,95,161); fill-rule: nonzero; opacity: 1;" transform=" translate(-52, -50)" d="M 52 30.5 A 19.5 19.5 0 1 0 52 69.5 A 19.5 19.5 0 1 0 52 30.5 Z" stroke-linecap="round"/>
</g>
<g transform="matrix(9.0909 0 0 9.0909 679.6429 423.5145)" id="613467">
<path style="stroke: none; stroke-width: 1; stroke-dasharray: none; stroke-linecap: butt; stroke-dashoffset: 0; stroke-linejoin: miter; stroke-miterlimit: 4; is-custom-font: none; font-file-url: none; fill: rgb(71,43,41); fill-rule: nonzero; opacity: 1;" transform=" translate(-69.7607, -42.5084)" d="M 70.623 44.987 c -0.214 0 -0.412 -0.138 -0.478 -0.353 c -0.084 -0.275 -0.175 -0.548 -0.271 -0.816 c -0.375 -1.048 -0.849 -2.069 -1.408 -3.036 c -0.139 -0.239 -0.057 -0.545 0.182 -0.683 c 0.24 -0.142 0.545 -0.058 0.683 0.183 c 0.589 1.019 1.088 2.095 1.483 3.197 c 0.102 0.283 0.197 0.571 0.287 0.86 c 0.081 0.265 -0.067 0.544 -0.331 0.625 C 70.721 44.98 70.671 44.987 70.623 44.987 z" stroke-linecap="round"/>
</g>
<g transform="matrix(9.0909 0 0 9.0909 518.1816 492.1608)" id="891723">
<path style="stroke: none; stroke-width: 1; stroke-dasharray: none; stroke-linecap: butt; stroke-dashoffset: 0; stroke-linejoin: miter; stroke-miterlimit: 4; is-custom-font: none; font-file-url: none; fill: rgb(71,43,41); fill-rule: nonzero; opacity: 1;" transform=" translate(-52, -50.0595)" d="M 52 70.035 c -11.047 0 -20.035 -8.961 -20.035 -19.976 c 0 -11.014 8.987 -19.975 20.035 -19.975 c 5.734 0 11.204 2.457 15.007 6.74 c 0.287 0.323 0.564 0.657 0.831 1 c 0.169 0.218 0.13 0.532 -0.087 0.701 c -0.217 0.173 -0.532 0.13 -0.702 -0.088 c -0.253 -0.325 -0.516 -0.642 -0.789 -0.949 c -3.614 -4.07 -8.811 -6.404 -14.259 -6.404 c -10.496 0 -19.035 8.512 -19.035 18.975 S 41.504 69.035 52 69.035 s 19.035 -8.513 19.035 -18.976 c 0 -0.955 -0.072 -1.912 -0.213 -2.846 c -0.041 -0.273 0.147 -0.528 0.42 -0.569 c 0.274 -0.043 0.528 0.146 0.569 0.419 c 0.149 0.983 0.224 1.991 0.224 2.996 C 72.035 61.074 63.047 70.035 52 70.035 z" stroke-linecap="round"/>
</g>
<g transform="matrix(9.0909 0 0 9.0909 515.2237 518.3098)" id="974868">
<path style="stroke: none; stroke-width: 1; stroke-dasharray: none; stroke-linecap: butt; stroke-dashoffset: 0; stroke-linejoin: miter; stroke-miterlimit: 4; is-custom-font: none; font-file-url: none; fill: rgb(254,253,239); fill-rule: nonzero; opacity: 1;" transform=" translate(-51.6746, -52.9359)" d="M 63.54 41.83 c 0.285 -1.585 0.115 -3.499 -0.525 -5.417 c -3.22 0 -5.701 2.19 -6.124 2.588 h -9.214 c -0.424 -0.397 -2.904 -2.588 -6.124 -2.588 c -0.576 1.728 -0.77 3.45 -0.597 4.934 C 39.144 42.992 38 45.359 38 48 c 0 4.971 4.029 9 9 9 h 1.835 c -1.441 0.66 -2.493 2 -2.756 3.615 c -1.619 0.165 -3.578 0.015 -4.526 -1.407 c -1.77 -2.655 -2.655 -2.655 -3.54 -2.655 c -0.885 0 -0.885 0.885 0 1.77 c 0.885 0.885 0.885 0.885 1.77 2.655 c 0.729 1.458 2.612 3.109 6.218 2.661 v 3.331 c 0 0.652 0.017 1.129 0.25 1.696 c 2.167 0.75 6.296 1.312 11.418 0.031 C 57.875 68.159 58 67.581 58 66.97 v -5.575 c 0 -1.956 -1.166 -3.631 -2.835 -4.396 H 57 c 4.971 0 9 -4.029 9 -9 C 66 45.609 65.061 43.441 63.54 41.83 z" stroke-linecap="round"/>
</g>
<g transform="matrix(9.0909 0 0 9.0909 515.2203 518.3199)" id="556983">
<path style="stroke: none; stroke-width: 1; stroke-dasharray: none; stroke-linecap: butt; stroke-dashoffset: 0; stroke-linejoin: miter; stroke-miterlimit: 4; is-custom-font: none; font-file-url: none; fill: rgb(71,43,41); fill-rule: nonzero; opacity: 1;" transform=" translate(-51.6742, -52.937)" d="M 51.699 69.961 c -2.909 0 -4.878 -0.567 -5.612 -0.821 c -0.135 -0.047 -0.244 -0.149 -0.299 -0.282 c -0.267 -0.649 -0.288 -1.191 -0.288 -1.887 v -2.78 c -4.171 0.297 -5.766 -2.19 -6.165 -2.988 c -0.849 -1.698 -0.849 -1.698 -1.676 -2.525 c -0.688 -0.688 -0.961 -1.433 -0.73 -1.99 c 0.167 -0.402 0.562 -0.634 1.083 -0.634 c 1.193 0 2.175 0.206 3.956 2.878 c 0.755 1.132 2.356 1.297 3.694 1.218 c 0.246 -1.025 0.785 -1.942 1.54 -2.648 H 47 c -5.238 0 -9.5 -4.262 -9.5 -9.5 c 0 -2.578 1.066 -5.06 2.933 -6.851 c -0.136 -1.528 0.085 -3.215 0.646 -4.896 c 0.068 -0.204 0.259 -0.342 0.474 -0.342 c 3.13 0 5.579 1.933 6.318 2.588 h 8.827 c 0.739 -0.655 3.188 -2.588 6.317 -2.588 c 0.215 0 0.406 0.138 0.474 0.342 c 0.623 1.866 0.827 3.778 0.584 5.417 C 65.64 43.419 66.5 45.656 66.5 48 c 0 5.238 -4.262 9.5 -9.5 9.5 h -0.201 c 1.065 0.994 1.701 2.4 1.701 3.896 v 5.575 c 0 0.633 -0.123 1.273 -0.365 1.905 c -0.058 0.152 -0.187 0.267 -0.346 0.307 C 55.471 69.763 53.42 69.961 51.699 69.961 z M 46.636 68.269 c 1.339 0.423 5.168 1.322 10.651 0.007 c 0.142 -0.437 0.213 -0.874 0.213 -1.305 v -5.575 c 0 -1.688 -0.998 -3.234 -2.543 -3.94 c -0.214 -0.099 -0.331 -0.332 -0.281 -0.562 c 0.05 -0.229 0.253 -0.394 0.489 -0.394 H 57 c 4.687 0 8.5 -3.813 8.5 -8.5 c 0 -2.17 -0.825 -4.239 -2.324 -5.827 c -0.109 -0.115 -0.156 -0.275 -0.128 -0.431 c 0.257 -1.431 0.116 -3.13 -0.396 -4.82 c -2.837 0.153 -5 2.05 -5.42 2.442 c -0.092 0.087 -0.215 0.136 -0.342 0.136 h -9.214 c -0.127 0 -0.25 -0.049 -0.342 -0.136 c -0.419 -0.393 -2.583 -2.289 -5.42 -2.442 c -0.459 1.518 -0.62 3.02 -0.462 4.366 c 0.019 0.16 -0.041 0.319 -0.16 0.428 C 39.518 43.328 38.5 45.619 38.5 48 c 0 4.687 3.813 8.5 8.5 8.5 h 1.835 c 0.235 0 0.438 0.164 0.488 0.394 c 0.05 0.229 -0.066 0.463 -0.28 0.561 c -1.315 0.603 -2.239 1.814 -2.471 3.241 c -0.037 0.224 -0.218 0.395 -0.443 0.417 c -2.395 0.243 -4.122 -0.32 -4.993 -1.627 c -1.622 -2.433 -2.352 -2.433 -3.124 -2.433 c -0.127 0 -0.169 0.028 -0.169 0.029 c -0.019 0.059 0.054 0.418 0.523 0.888 c 0.943 0.942 0.977 1.012 1.864 2.785 c 0.343 0.685 1.769 2.884 5.709 2.389 c 0.142 -0.019 0.286 0.026 0.393 0.121 c 0.107 0.095 0.169 0.231 0.169 0.375 v 3.331 C 46.5 67.496 46.51 67.87 46.636 68.269 z" stroke-linecap="round"/>
</g>
<g transform="matrix(9.0909 0 0 9.0909 591.7363 516.7564)" id="559373">
<path style="stroke: none; stroke-width: 1; stroke-dasharray: none; stroke-linecap: butt; stroke-dashoffset: 0; stroke-linejoin: miter; stroke-miterlimit: 4; is-custom-font: none; font-file-url: none; fill: rgb(254,253,239); fill-rule: nonzero; opacity: 1;" transform=" translate(-60.091, -52.765)" d="M 63.098 50.905 c -0.852 1.888 -2.722 3.456 -6.014 3.72" stroke-linecap="round"/>
</g>
<g transform="matrix(9.0909 0 0 9.0909 591.7288 516.7569)" id="460815">
<path style="stroke: none; stroke-width: 1; stroke-dasharray: none; stroke-linecap: butt; stroke-dashoffset: 0; stroke-linejoin: miter; stroke-miterlimit: 4; is-custom-font: none; font-file-url: none; fill: rgb(71,43,41); fill-rule: nonzero; opacity: 1;" transform=" translate(-60.0902, -52.7651)" d="M 57.083 54.875 c -0.129 0 -0.238 -0.1 -0.249 -0.23 c -0.011 -0.137 0.091 -0.258 0.229 -0.269 c 3.596 -0.288 5.142 -2.103 5.806 -3.573 c 0.057 -0.127 0.204 -0.183 0.331 -0.125 c 0.125 0.057 0.182 0.204 0.125 0.33 c -1.017 2.254 -3.227 3.627 -6.222 3.866 C 57.097 54.875 57.09 54.875 57.083 54.875 z" stroke-linecap="round"/>
</g>
<g transform="matrix(9.0909 0 0 9.0909 623.7766 475.9246)" id="135813">
<path style="stroke: none; stroke-width: 1; stroke-dasharray: none; stroke-linecap: butt; stroke-dashoffset: 0; stroke-linejoin: miter; stroke-miterlimit: 4; is-custom-font: none; font-file-url: none; fill: rgb(254,253,239); fill-rule: nonzero; opacity: 1;" transform=" translate(-63.6154, -48.2735)" d="M 63.592 47.165 c 0.105 0.713 0.103 1.469 -0.028 2.217" stroke-linecap="round"/>
</g>
<g transform="matrix(9.0909 0 0 9.0909 623.7721 475.9281)" id="247546">
<path style="stroke: none; stroke-width: 1; stroke-dasharray: none; stroke-linecap: butt; stroke-dashoffset: 0; stroke-linejoin: miter; stroke-miterlimit: 4; is-custom-font: none; font-file-url: none; fill: rgb(71,43,41); fill-rule: nonzero; opacity: 1;" transform=" translate(-63.6149, -48.2739)" d="M 63.564 49.632 c -0.015 0 -0.029 -0.001 -0.044 -0.004 c -0.136 -0.023 -0.227 -0.153 -0.203 -0.289 c 0.122 -0.693 0.131 -1.432 0.027 -2.138 c -0.021 -0.136 0.074 -0.264 0.21 -0.283 c 0.133 -0.018 0.264 0.074 0.284 0.211 c 0.114 0.768 0.104 1.541 -0.029 2.296 C 63.789 49.547 63.683 49.632 63.564 49.632 z" stroke-linecap="round"/>
</g>
<g transform="matrix(9.0909 0 0 9.0909 613.8181 444.2746)" id="861065">
<path style="stroke: none; stroke-width: 1; stroke-dasharray: none; stroke-linecap: butt; stroke-dashoffset: 0; stroke-linejoin: miter; stroke-miterlimit: 4; is-custom-font: none; font-file-url: none; fill: rgb(254,253,239); fill-rule: nonzero; opacity: 1;" transform=" translate(-62.52, -44.792)" d="M 61.816 43.819 c 0.599 0.426 1.085 1.116 1.408 1.946" stroke-linecap="round"/>
</g>
<g transform="matrix(9.0909 0 0 9.0909 613.8179 444.2745)" id="520671">
<path style="stroke: none; stroke-width: 1; stroke-dasharray: none; stroke-linecap: butt; stroke-dashoffset: 0; stroke-linejoin: miter; stroke-miterlimit: 4; is-custom-font: none; font-file-url: none; fill: rgb(71,43,41); fill-rule: nonzero; opacity: 1;" transform=" translate(-62.52, -44.792)" d="M 63.224 46.015 c -0.1 0 -0.194 -0.061 -0.233 -0.159 c -0.315 -0.809 -0.771 -1.442 -1.32 -1.832 c -0.112 -0.08 -0.139 -0.236 -0.059 -0.349 c 0.081 -0.113 0.237 -0.14 0.349 -0.06 c 0.628 0.447 1.146 1.159 1.496 2.059 c 0.05 0.129 -0.014 0.273 -0.142 0.324 C 63.285 46.009 63.254 46.015 63.224 46.015 z" stroke-linecap="round"/>
</g>
</svg>