<svg xmlns="http://www.w3.org/2000/svg" xmlns:xlink="http://www.w3.org/1999/xlink" version="1.1" width="1000" height="1000" viewBox="0 0 1000 1000" xml:space="preserve">
<desc>Created with Fabric.js 3.5.0</desc>
<defs>
</defs>
<rect x="0" y="0" width="100%" height="100%" fill="#ffffff"/>
<g transform="matrix(9.091 0 0 9.091 659.3015 427.5941)" id="573846">
<path style="stroke: none; stroke-width: 1; stroke-dasharray: none; stroke-linecap: butt; stroke-dashoffset: 0; stroke-linejoin: miter; stroke-miterlimit: 4; is-custom-font: none; font-file-url: none; fill: rgb(253,252,239); fill-rule: nonzero; opacity: 1;" transform=" translate(-67.5225, -42.0349)" d="M 72.392 39.019 c -1.642 -0.108 -3.055 1.026 -3.157 2.533 c -0.013 0.187 -0.004 0.371 0.023 0.55 c -0.317 -0.358 -0.786 -0.6 -1.324 -0.636 c -0.985 -0.065 -1.836 0.586 -1.959 1.471 c -0.179 -0.049 -0.366 -0.082 -0.56 -0.095 c -1.437 -0.094 -2.674 0.898 -2.762 2.216" stroke-linecap="round"/>
</g>
<g transform="matrix(9.091 0 0 9.091 659.3062 427.6127)" id="598250">
<path style="stroke: none; stroke-width: 1; stroke-dasharray: none; stroke-linecap: butt; stroke-dashoffset: 0; stroke-linejoin: miter; stroke-miterlimit: 4; is-custom-font: none; font-file-url: none; fill: rgb(71,43,41); fill-rule: nonzero; opacity: 1;" transform=" translate(-67.523, -42.037)" d="M 62.654 45.309 c -0.006 0 -0.012 0 -0.017 0 c -0.138 -0.009 -0.242 -0.128 -0.233 -0.266 c 0.099 -1.453 1.446 -2.543 3.028 -2.449 c 0.117 0.008 0.235 0.022 0.353 0.044 c 0.26 -0.878 1.158 -1.492 2.166 -1.42 c 0.371 0.024 0.728 0.141 1.034 0.332 c 0 -0.005 0.001 -0.009 0.001 -0.014 c 0.11 -1.641 1.646 -2.868 3.423 -2.765 c 0.138 0.009 0.242 0.128 0.233 0.266 c -0.009 0.138 -0.125 0.241 -0.266 0.233 c -1.513 -0.103 -2.799 0.933 -2.891 2.3 c -0.011 0.164 -0.004 0.331 0.021 0.497 c 0.017 0.109 -0.041 0.217 -0.142 0.264 c -0.099 0.047 -0.219 0.023 -0.293 -0.061 c -0.284 -0.321 -0.704 -0.522 -1.152 -0.552 c -0.852 -0.056 -1.59 0.496 -1.695 1.256 c -0.01 0.071 -0.05 0.134 -0.11 0.174 c -0.061 0.04 -0.134 0.052 -0.204 0.033 c -0.17 -0.046 -0.342 -0.075 -0.51 -0.086 c -1.298 -0.083 -2.417 0.805 -2.497 1.983 C 62.894 45.208 62.785 45.309 62.654 45.309 z" stroke-linecap="round"/>
</g>
<g transform="matrix(9.091 0 0 9.091 521.8138 504.7136)" id="664671">
<path style="stroke: none; stroke-width: 1; stroke-dasharray: none; stroke-linecap: butt; stroke-dashoffset: 0; stroke-linejoin: miter; stroke-miterlimit: 4; is-custom-font: none; font-file-url: none; fill: rgb(0,109,239); fill-rule: nonzero; opacity: 1;" transform=" translate(-52.399, -50.518)" d="M 65.26 70.226 H 39.538 c -3.766 0 -6.847 -3.081 -6.847 -6.847 V 37.657 c 0 -3.766 3.081 -6.847 6.847 -6.847 H 65.26 c 3.766 0 6.847 3.081 6.847 6.847 v 25.722 C 72.108 67.145 69.026 70.226 65.26 70.226 z" stroke-linecap="round"/>
</g>
<g transform="matrix(9.091 0 0 9.091 521.8184 504.7136)" id="404751">
<path style="stroke: none; stroke-width: 1; stroke-dasharray: none; stroke-linecap: butt; stroke-dashoffset: 0; stroke-linejoin: miter; stroke-miterlimit: 4; is-custom-font: none; font-file-url: none; fill: rgb(71,43,41); fill-rule: nonzero; opacity: 1;" transform=" translate(-52.3995, -50.518)" d="M 65.26 70.926 H 39.538 c -4.162 0 -7.547 -3.386 -7.547 -7.547 V 37.657 c 0 -4.162 3.386 -7.547 7.547 -7.547 H 65.26 c 4.162 0 7.548 3.386 7.548 7.547 v 25.722 C 72.808 67.541 69.422 70.926 65.26 70.926 z M 39.538 31.51 c -3.39 0 -6.147 2.757 -6.147 6.147 v 25.722 c 0 3.39 2.757 6.147 6.147 6.147 H 65.26 c 3.39 0 6.147 -2.757 6.147 -6.147 V 37.657 c 0 -3.39 -2.758 -6.147 -6.147 -6.147 H 39.538 z" stroke-linecap="round"/>
</g>
<g transform="matrix(9.091 0 0 9.091 521.8138 504.7137)" id="774761">
<path style="stroke: none; stroke-width: 1; stroke-dasharray: none; stroke-linecap: butt; stroke-dashoffset: 0; stroke-linejoin: miter; stroke-miterlimit: 4; is-custom-font: none; font-file-url: none; fill: rgb(253,252,238); fill-rule: nonzero; opacity: 1;" transform=" translate(-52.399, -50.518)" d="M 63.743 67.411 H 41.055 c -3.052 0 -5.549 -2.497 -5.549 -5.549 V 39.174 c 0 -3.052 2.497 -5.549 5.549 -5.549 h 22.688 c 3.052 0 5.549 2.497 5.549 5.549 v 22.688 C 69.292 64.914 66.795 67.411 63.743 67.411 z" stroke-linecap="round"/>
</g>
<g transform="matrix(9.091 0 0 9.091 521.8138 504.7136)" id="133971">
<path style="stroke: none; stroke-width: 1; stroke-dasharray: none; stroke-linecap: butt; stroke-dashoffset: 0; stroke-linejoin: miter; stroke-miterlimit: 4; is-custom-font: none; font-file-url: none; fill: rgb(71,43,41); fill-rule: nonzero; opacity: 1;" transform=" translate(-52.399, -50.518)" d="M 64.158 67.761 H 40.64 c -3.024 0 -5.484 -2.46 -5.484 -5.484 V 38.759 c 0 -3.024 2.46 -5.484 5.484 -5.484 h 22.395 c 0.193 0 0.35 0.157 0.35 0.35 s -0.157 0.35 -0.35 0.35 H 40.64 c -2.638 0 -4.784 2.146 -4.784 4.784 v 23.517 c 0 2.638 2.146 4.784 4.784 4.784 h 23.518 c 2.638 0 4.784 -2.146 4.784 -4.784 v -13.01 c 0 -0.193 0.157 -0.35 0.35 -0.35 s 0.35 0.157 0.35 0.35 v 13.01 C 69.642 65.301 67.182 67.761 64.158 67.761 z" stroke-linecap="round"/>
</g>
<g transform="matrix(9.091 0 0 9.091 675.3881 453.5268)" id="627572">
<path style="stroke: none; stroke-width: 1; stroke-dasharray: none; stroke-linecap: butt; stroke-dashoffset: 0; stroke-linejoin: miter; stroke-miterlimit: 4; is-custom-font: none; font-file-url: none; fill: rgb(71,43,41); fill-rule: nonzero; opacity: 1;" transform=" translate(-69.292, -44.8875)" d="M 69.292 47.74 c -0.193 0 -0.35 -0.157 -0.35 -0.35 v -2.503 c 0 -0.193 0.157 -0.35 0.35 -0.35 s 0.35 0.157 0.35 0.35 v 2.503 C 69.642 47.583 69.485 47.74 69.292 47.74 z M 69.292 43.986 c -0.193 0 -0.35 -0.157 -0.35 -0.35 v -1.251 c 0 -0.193 0.157 -0.35 0.35 -0.35 s 0.35 0.157 0.35 0.35 v 1.251 C 69.642 43.829 69.485 43.986 69.292 43.986 z" stroke-linecap="round"/>
</g>
<g transform="matrix(9.091 0 0 9.091 525.6002 500.0045)" id="34846">
<path style="stroke: none; stroke-width: 1; stroke-dasharray: none; stroke-linecap: butt; stroke-dashoffset: 0; stroke-linejoin: miter; stroke-miterlimit: 4; is-custom-font: none; font-file-url: none; fill: rgb(18,122,216); fill-rule: nonzero; opacity: 1;" transform=" translate(-52.8155, -50)" d="M 61.494 52.268 v 6.075 h -3.581 l -0.05 -6.023 c 0 -1.525 -0.694 -2.609 -2.063 -2.609 c -1.045 0 -1.664 0.699 -1.938 1.378 c -0.098 0.241 -0.127 0.581 -0.127 0.92 v 6.334 h -3.627 c 0 0 0.049 -10.276 0 -11.339 h 3.627 v 1.75 c -0.008 0.013 -0.016 0.027 -0.025 0.04 h 0.025 v -0.04 c 0.504 -0.842 1.424 -1.822 3.433 -1.822 C 59.657 46.927 61.494 48.478 61.494 52.268 z M 45.988 41.657 c -1.12 0 -1.851 0.768 -1.851 1.778 c 0 0.987 0.709 1.778 1.808 1.778 h 0.021 c 1.142 0 1.851 -0.791 1.851 -1.778 C 47.793 42.426 47.105 41.657 45.988 41.657 z M 44.187 58.343 h 3.581 V 47.004 h -3.581 V 58.343 z" stroke-linecap="round"/>
</g>
<g transform="matrix(9.091 0 0 9.091 525.6002 500.0045)" id="458620">
<path style="stroke: none; stroke-width: 1; stroke-dasharray: none; stroke-linecap: butt; stroke-dashoffset: 0; stroke-linejoin: miter; stroke-miterlimit: 4; is-custom-font: none; font-file-url: none; fill: rgb(71,43,41); fill-rule: nonzero; opacity: 1;" transform=" translate(-52.8155, -50)" d="M 61.494 58.693 h -3.581 c -0.192 0 -0.349 -0.155 -0.35 -0.347 l -0.049 -6.023 c 0 -0.682 -0.167 -2.262 -1.713 -2.262 c -1.033 0 -1.473 0.811 -1.613 1.159 c -0.068 0.165 -0.102 0.43 -0.102 0.789 v 6.334 c 0 0.193 -0.157 0.35 -0.35 0.35 h -3.627 c -0.093 0 -0.183 -0.037 -0.248 -0.103 c -0.066 -0.066 -0.103 -0.156 -0.102 -0.249 c 0 -0.103 0.048 -10.28 0 -11.322 c -0.004 -0.096 0.03 -0.188 0.097 -0.258 c 0.066 -0.069 0.157 -0.108 0.253 -0.108 h 3.627 c 0.193 0 0.35 0.157 0.35 0.35 v 0.725 c 0.766 -0.77 1.783 -1.147 3.083 -1.147 c 0.004 0 0.008 0 0.011 0 c 1.32 0 2.395 0.404 3.192 1.2 c 0.977 0.975 1.472 2.485 1.472 4.486 v 6.075 C 61.845 58.536 61.688 58.693 61.494 58.693 z M 58.261 57.993 h 2.884 v -5.725 c 0 -1.809 -0.426 -3.152 -1.267 -3.991 c -0.662 -0.661 -1.57 -0.996 -2.698 -0.996 c -0.003 0 -0.007 0 -0.01 0 c -1.889 0 -2.681 0.912 -3.111 1.616 c -0.1 0.255 -0.507 0.304 -0.639 0.068 c -0.052 -0.093 -0.068 -0.203 -0.033 -0.299 v -1.313 h -2.918 c 0.03 1.875 0 8.947 -0.007 10.639 h 2.925 v -5.984 c 0 -0.457 0.05 -0.801 0.153 -1.052 c 0.403 -0.999 1.25 -1.596 2.262 -1.596 c 1.488 0 2.413 1.134 2.413 2.959 L 58.261 57.993 z M 47.768 58.693 h -3.581 c -0.193 0 -0.35 -0.157 -0.35 -0.35 V 47.004 c 0 -0.193 0.157 -0.35 0.35 -0.35 h 3.581 c 0.193 0 0.35 0.157 0.35 0.35 v 11.339 C 48.118 58.536 47.961 58.693 47.768 58.693 z M 44.537 57.993 h 2.88 V 47.354 h -2.88 V 57.993 z M 45.967 45.563 c -1.272 0 -2.18 -0.895 -2.18 -2.128 s 0.926 -2.128 2.201 -2.128 c 1.252 0 2.149 0.872 2.18 2.119 C 48.168 44.668 47.242 45.563 45.967 45.563 z M 45.988 42.008 c -0.897 0 -1.5 0.574 -1.5 1.428 c 0 0.841 0.6 1.428 1.458 1.428 c 0.919 0 1.522 -0.574 1.522 -1.428 C 47.446 42.572 46.866 42.008 45.988 42.008 z" stroke-linecap="round"/>
</g>
</svg>