<svg xmlns="http://www.w3.org/2000/svg" xmlns:xlink="http://www.w3.org/1999/xlink" version="1.1" width="1000" height="1000" viewBox="0 0 1000 1000" xml:space="preserve">
<desc>Created with Fabric.js 3.5.0</desc>
<defs>
</defs>
<rect x="0" y="0" width="100%" height="100%" fill="#ffffff"/>
<g transform="matrix(9.0909 0 0 9.0909 617.5863 420.5421)" id="296603">
<path style="stroke: none; stroke-width: 1; stroke-dasharray: none; stroke-linecap: butt; stroke-dashoffset: 0; stroke-linejoin: miter; stroke-miterlimit: 4; is-custom-font: none; font-file-url: none; fill: rgb(253,252,239); fill-rule: nonzero; opacity: 1;" transform=" translate(-67.4345, -42.2596)" d="M 72.775 38.951 c -1.801 -0.118 -3.351 1.126 -3.462 2.778 c -0.014 0.205 -0.005 0.407 0.025 0.604 c -0.347 -0.392 -0.862 -0.659 -1.452 -0.697 c -1.08 -0.071 -2.013 0.643 -2.149 1.613 c -0.197 -0.054 -0.401 -0.09 -0.614 -0.104 c -1.576 -0.103 -2.932 0.985 -3.029 2.431" stroke-linecap="round"/>
</g>
<g transform="matrix(9.0909 0 0 9.0909 617.5863 420.5394)" id="980763">
<path style="stroke: none; stroke-width: 1; stroke-dasharray: none; stroke-linecap: butt; stroke-dashoffset: 0; stroke-linejoin: miter; stroke-miterlimit: 4; is-custom-font: none; font-file-url: none; fill: rgb(71,43,41); fill-rule: nonzero; opacity: 1;" transform=" translate(-67.4345, -42.2593)" d="M 62.095 45.825 c -0.006 0 -0.012 0 -0.017 0 c -0.138 -0.009 -0.242 -0.128 -0.233 -0.266 c 0.106 -1.582 1.575 -2.783 3.295 -2.664 c 0.134 0.009 0.27 0.026 0.406 0.052 c 0.274 -0.963 1.261 -1.628 2.356 -1.562 c 0.423 0.028 0.82 0.159 1.158 0.38 c 0.001 -0.018 0.002 -0.036 0.003 -0.053 c 0.12 -1.787 1.785 -3.13 3.728 -3.011 c 0.138 0.009 0.242 0.128 0.233 0.266 c -0.009 0.137 -0.116 0.241 -0.266 0.233 c -1.659 -0.116 -3.095 1.033 -3.196 2.545 c -0.012 0.183 -0.004 0.368 0.023 0.549 c 0.017 0.11 -0.041 0.217 -0.141 0.264 c -0.099 0.046 -0.219 0.023 -0.293 -0.061 c -0.322 -0.363 -0.777 -0.581 -1.281 -0.614 c -0.935 -0.065 -1.768 0.553 -1.885 1.398 c -0.01 0.071 -0.05 0.135 -0.11 0.174 s -0.135 0.05 -0.204 0.032 c -0.188 -0.052 -0.378 -0.084 -0.564 -0.096 c -1.427 -0.088 -2.675 0.892 -2.764 2.198 C 62.335 45.723 62.225 45.825 62.095 45.825 z" stroke-linecap="round"/>
</g>
<g transform="matrix(9.0909 0 0 9.0909 490.2734 500.0089)" id="114323">
<path style="stroke: none; stroke-width: 1; stroke-dasharray: none; stroke-linecap: butt; stroke-dashoffset: 0; stroke-linejoin: miter; stroke-miterlimit: 4; is-custom-font: none; font-file-url: none; fill: rgb(205,203,189); fill-rule: nonzero; opacity: 1;" transform=" translate(-53.4301, -51.001)" d="M 34.443 69.3 c -0.485 0 -1.086 -0.136 -1.427 -1.199 c -0.265 -0.826 -0.265 -1.847 -0.264 -2.522 L 32.7 39.251 v -3.649 c 0 -1.6 1.278 -2.901 2.849 -2.901 h 17.179 c 1.605 0 2.911 1.375 2.911 3.066 v 1.393 c 0 1.205 0.951 2.187 2.119 2.187 h 15.634 c 0.396 0 0.718 0.353 0.718 0.787 v 22.5 c 0 0.305 0.01 0.681 0.021 1.102 c 0.044 1.634 0.114 4.276 -0.436 5.565 H 34.443 z" stroke-linecap="round"/>
</g>
<g transform="matrix(9.0909 0 0 9.0909 490.2779 499.9999)" id="193853">
<path style="stroke: none; stroke-width: 1; stroke-dasharray: none; stroke-linecap: butt; stroke-dashoffset: 0; stroke-linejoin: miter; stroke-miterlimit: 4; is-custom-font: none; font-file-url: none; fill: rgb(71,43,41); fill-rule: nonzero; opacity: 1;" transform=" translate(-53.4306, -51)" d="M 52.728 33.4 c 1.219 0 2.211 1.061 2.211 2.366 v 1.393 c 0 1.592 1.264 2.887 2.819 2.887 l 15.617 -0.004 c 0.007 0.004 0.035 0.033 0.035 0.091 v 22.501 c 0 0.31 0.01 0.692 0.021 1.12 c 0.033 1.228 0.096 3.56 -0.236 4.847 H 34.443 c -0.261 0 -0.531 0 -0.76 -0.714 c -0.231 -0.721 -0.231 -1.676 -0.23 -2.307 l 0 -0.088 L 33.4 39.252 v -3.651 c 0 -1.214 0.964 -2.202 2.149 -2.202 H 52.728 M 52.728 32 H 35.549 C 33.597 32 32 33.621 32 35.602 v 3.651 l 0.052 26.242 C 32.052 66.853 32 70 34.443 70 h 39.672 c 1.027 -1.571 0.695 -5.631 0.695 -7.367 V 40.132 c 0 -0.821 -0.635 -1.487 -1.419 -1.487 H 57.757 c -0.783 0 -1.419 -0.666 -1.419 -1.487 v -1.393 C 56.339 33.695 54.714 32 52.728 32 L 52.728 32 z" stroke-linecap="round"/>
</g>
<g transform="matrix(9.0909 0 0 9.0909 508.5725 545.4635)" id="74458">
<path style="stroke: none; stroke-width: 1; stroke-dasharray: none; stroke-linecap: butt; stroke-dashoffset: 0; stroke-linejoin: miter; stroke-miterlimit: 4; is-custom-font: none; font-file-url: none; fill: rgb(253,252,238); fill-rule: nonzero; opacity: 1;" transform=" translate(-55.443, -56.001)" d="M 34.745 69.3 c -0.045 -0.013 -0.109 -0.086 -0.16 -0.17 c 1.146 -0.366 1.247 -2.478 1.247 -4.981 v -20.96 c 0 -0.27 0.203 -0.488 0.453 -0.488 h 39.563 c 0.25 0 0.453 0.219 0.453 0.488 v 22.77 c 0 1.843 -1.444 3.342 -3.221 3.342 H 34.745 z" stroke-linecap="round"/>
</g>
<g transform="matrix(9.0909 0 0 9.0909 508.2009 545.4544)" id="850131">
<path style="stroke: none; stroke-width: 1; stroke-dasharray: none; stroke-linecap: butt; stroke-dashoffset: 0; stroke-linejoin: miter; stroke-miterlimit: 4; is-custom-font: none; font-file-url: none; fill: rgb(71,43,41); fill-rule: nonzero; opacity: 1;" transform=" translate(-55.4021, -56)" d="M 75.6 43.4 v 22.558 c 0 1.457 -1.131 2.642 -2.52 2.642 H 36.03 c 0.501 -1.162 0.501 -2.919 0.501 -4.451 V 43.4 H 75.6 M 75.847 42 H 36.284 c -0.637 0 -1.153 0.532 -1.153 1.189 v 20.96 c 0 2.683 -0.178 4.337 -0.927 4.337 c -0.809 0 -0.268 1.514 0.54 1.514 H 73.08 c 2.165 0 3.92 -1.81 3.92 -4.042 V 43.189 C 77 42.532 76.484 42 75.847 42 L 75.847 42 z" stroke-linecap="round"/>
</g>
<g transform="matrix(9.0909 0 0 9.0909 372.7272 368.1818)" id="12070">
<path style="stroke: none; stroke-width: 1; stroke-dasharray: none; stroke-linecap: butt; stroke-dashoffset: 0; stroke-linejoin: miter; stroke-miterlimit: 4; is-custom-font: none; font-file-url: none; fill: rgb(71,43,41); fill-rule: nonzero; opacity: 1;" transform=" translate(-40.5, -36.5)" d="M 45.5 37 h -10 c -0.276 0 -0.5 -0.224 -0.5 -0.5 s 0.224 -0.5 0.5 -0.5 h 10 c 0.276 0 0.5 0.224 0.5 0.5 S 45.776 37 45.5 37 z" stroke-linecap="round"/>
</g>
<g transform="matrix(9.0909 0 0 9.0909 463.6363 368.1818)" id="463607">
<path style="stroke: none; stroke-width: 1; stroke-dasharray: none; stroke-linecap: butt; stroke-dashoffset: 0; stroke-linejoin: miter; stroke-miterlimit: 4; is-custom-font: none; font-file-url: none; fill: rgb(71,43,41); fill-rule: nonzero; opacity: 1;" transform=" translate(-50.5, -36.5)" d="M 52.5 37 h -4 c -0.276 0 -0.5 -0.224 -0.5 -0.5 s 0.224 -0.5 0.5 -0.5 h 4 c 0.276 0 0.5 0.224 0.5 0.5 S 52.776 37 52.5 37 z" stroke-linecap="round"/>
</g>
<g transform="matrix(9.0909 0 0 9.0909 431.8181 481.8182)" id="328888">
<path style="stroke: none; stroke-width: 1; stroke-dasharray: none; stroke-linecap: butt; stroke-dashoffset: 0; stroke-linejoin: miter; stroke-miterlimit: 4; is-custom-font: none; font-file-url: none; fill: rgb(71,43,41); fill-rule: nonzero; opacity: 1;" transform=" translate(-47, -49)" d="M 53.5 52 h -13 c -0.276 0 -0.5 -0.224 -0.5 -0.5 v -5 c 0 -0.276 0.224 -0.5 0.5 -0.5 h 13 c 0.276 0 0.5 0.224 0.5 0.5 v 5 C 54 51.776 53.776 52 53.5 52 z M 41 51 h 12 v -4 H 41 V 51 z" stroke-linecap="round"/>
</g>
</svg>