<svg xmlns="http://www.w3.org/2000/svg" xmlns:xlink="http://www.w3.org/1999/xlink" version="1.1" width="1000" height="1000" viewBox="0 0 1000 1000" xml:space="preserve">
<desc>Created with Fabric.js 3.5.0</desc>
<defs>
</defs>
<rect x="0" y="0" width="100%" height="100%" fill="#ffffff"/>
<g transform="matrix(9.0909 0 0 9.0909 658.0227 429.3421)" id="370377">
<path style="stroke: none; stroke-width: 1; stroke-dasharray: none; stroke-linecap: butt; stroke-dashoffset: 0; stroke-linejoin: miter; stroke-miterlimit: 4; is-custom-font: none; font-file-url: none; fill: rgb(253,252,239); fill-rule: nonzero; opacity: 1;" transform=" translate(-67.3825, -42.2276)" d="M 72.723 38.919 c -1.801 -0.118 -3.351 1.126 -3.462 2.778 c -0.014 0.205 -0.005 0.407 0.025 0.604 c -0.347 -0.392 -0.862 -0.659 -1.452 -0.697 c -1.08 -0.071 -2.013 0.643 -2.149 1.613 c -0.197 -0.054 -0.401 -0.09 -0.614 -0.104 c -1.576 -0.103 -2.932 0.985 -3.029 2.431" stroke-linecap="round"/>
</g>
<g transform="matrix(9.0909 0 0 9.0909 658.0227 429.3394)" id="807361">
<path style="stroke: none; stroke-width: 1; stroke-dasharray: none; stroke-linecap: butt; stroke-dashoffset: 0; stroke-linejoin: miter; stroke-miterlimit: 4; is-custom-font: none; font-file-url: none; fill: rgb(71,43,41); fill-rule: nonzero; opacity: 1;" transform=" translate(-67.3825, -42.2273)" d="M 62.043 45.793 c -0.006 0 -0.012 0 -0.017 0 c -0.138 -0.009 -0.242 -0.128 -0.233 -0.266 c 0.106 -1.582 1.575 -2.783 3.295 -2.664 c 0.134 0.009 0.27 0.026 0.406 0.052 c 0.274 -0.963 1.261 -1.628 2.356 -1.562 c 0.423 0.028 0.82 0.159 1.158 0.38 c 0.001 -0.018 0.002 -0.036 0.003 -0.053 c 0.12 -1.787 1.785 -3.13 3.728 -3.011 c 0.138 0.009 0.242 0.128 0.233 0.266 c -0.009 0.137 -0.116 0.241 -0.266 0.233 c -1.659 -0.116 -3.095 1.033 -3.196 2.545 c -0.012 0.183 -0.004 0.368 0.023 0.549 c 0.017 0.11 -0.041 0.217 -0.141 0.264 c -0.099 0.046 -0.219 0.023 -0.293 -0.061 c -0.322 -0.363 -0.777 -0.581 -1.281 -0.614 c -0.935 -0.065 -1.768 0.553 -1.885 1.398 c -0.01 0.071 -0.05 0.135 -0.11 0.174 s -0.135 0.05 -0.204 0.032 c -0.188 -0.052 -0.378 -0.084 -0.564 -0.096 c -1.427 -0.088 -2.675 0.892 -2.764 2.198 C 62.283 45.692 62.173 45.793 62.043 45.793 z" stroke-linecap="round"/>
</g>
<g transform="matrix(9.0909 0 0 9.0909 540.8952 505.9999)" id="368713">
<path style="stroke: none; stroke-width: 1; stroke-dasharray: none; stroke-linecap: butt; stroke-dashoffset: 0; stroke-linejoin: miter; stroke-miterlimit: 4; is-custom-font: none; font-file-url: none; fill: rgb(205,203,189); fill-rule: nonzero; opacity: 1;" transform=" translate(-54.4985, -50.66)" d="M 58.234 38.789 c -0.786 0 -1.423 -0.608 -1.423 -1.359 v -1.273 c 0 -1.893 -1.63 -3.442 -3.622 -3.442 h -15.88 c -1.992 0 -3.622 1.549 -3.622 3.442 V 38.9 v 0.746 l 0.062 27.821 c 2.83 0.131 3.068 1.138 6.892 1.138 h 27.731 c 3.816 0 6.938 -2.977 6.938 -6.615 V 40.148 c 0 -0.751 -0.637 -1.359 -1.423 -1.359 H 58.234 z" stroke-linecap="round"/>
</g>
<g transform="matrix(9.0909 0 0 9.0909 540.9089 505.9908)" id="948566">
<path style="stroke: none; stroke-width: 1; stroke-dasharray: none; stroke-linecap: butt; stroke-dashoffset: 0; stroke-linejoin: miter; stroke-miterlimit: 4; is-custom-font: none; font-file-url: none; fill: rgb(71,43,41); fill-rule: nonzero; opacity: 1;" transform=" translate(-54.5, -50.659)" d="M 68.373 69.318 H 40.642 c -2.233 0 -3.341 -0.341 -4.32 -0.643 c -0.738 -0.228 -1.436 -0.442 -2.603 -0.496 c -0.368 -0.017 -0.656 -0.331 -0.657 -0.712 L 33 36.156 C 33 33.865 34.934 32 37.31 32 h 15.88 c 2.376 0 4.31 1.865 4.31 4.156 v 1.273 c 0 0.356 0.329 0.645 0.735 0.645 h 15.654 c 1.163 0 2.111 0.93 2.111 2.073 V 61.99 C 75.999 66.03 72.578 69.318 68.373 69.318 z M 34.436 66.801 c 0.963 0.101 1.629 0.305 2.277 0.505 c 0.932 0.287 1.896 0.584 3.929 0.584 h 27.731 c 3.446 0 6.249 -2.646 6.249 -5.9 V 40.148 c 0 -0.356 -0.329 -0.645 -0.735 -0.645 H 58.232 c -1.163 0 -2.111 -0.93 -2.111 -2.073 v -1.273 c 0 -1.504 -1.316 -2.727 -2.933 -2.727 H 37.309 c -1.617 0 -2.933 1.223 -2.933 2.727 v 3.489 L 34.436 66.801 z" stroke-linecap="round"/>
</g>
<g transform="matrix(9.0909 0 0 9.0909 566.2804 551.4771)" id="631770">
<path style="stroke: none; stroke-width: 1; stroke-dasharray: none; stroke-linecap: butt; stroke-dashoffset: 0; stroke-linejoin: miter; stroke-miterlimit: 4; is-custom-font: none; font-file-url: none; fill: rgb(253,252,238); fill-rule: nonzero; opacity: 1;" transform=" translate(-57.4445, -56.2635)" d="M 74.107 69.206 H 35.252 c -0.992 0 -1.796 -0.806 -1.796 -1.801 l 5.686 -24.084 h 42.291 l -5.686 24.241 C 75.748 68.47 75.013 69.206 74.107 69.206 z" stroke-linecap="round"/>
</g>
<g transform="matrix(9.0909 0 0 9.0909 567.6791 556.9408)" id="674461">
<path style="stroke: none; stroke-width: 1; stroke-dasharray: none; stroke-linecap: butt; stroke-dashoffset: 0; stroke-linejoin: miter; stroke-miterlimit: 4; is-custom-font: none; font-file-url: none; fill: rgb(71,43,41); fill-rule: nonzero; opacity: 1;" transform=" translate(-57.4447, -56.2635)" d="M 74.107 69.906 H 35.252 c -1.376 0 -2.496 -1.122 -2.496 -2.5 c 0 -0.054 0.006 -0.108 0.019 -0.161 l 5.686 -24.084 c 0.075 -0.316 0.356 -0.54 0.681 -0.54 h 42.291 c 0.214 0 0.416 0.098 0.549 0.266 c 0.132 0.167 0.182 0.386 0.133 0.594 L 76.446 67.65 C 76.399 68.902 75.368 69.906 74.107 69.906 z M 34.159 67.478 c 0.037 0.573 0.514 1.028 1.094 1.028 h 38.855 c 0.519 0 0.94 -0.423 0.94 -0.944 c 0 -0.054 0.006 -0.107 0.019 -0.16 l 5.484 -23.38 H 39.697 L 34.159 67.478 z" stroke-linecap="round"/>
</g>
<g transform="matrix(9.0909 0 0 9.0909 431.8181 377.2727)" id="186440">
<path style="stroke: none; stroke-width: 1; stroke-dasharray: none; stroke-linecap: butt; stroke-dashoffset: 0; stroke-linejoin: miter; stroke-miterlimit: 4; is-custom-font: none; font-file-url: none; fill: rgb(71,43,41); fill-rule: nonzero; opacity: 1;" transform=" translate(-42.5, -36.5)" d="M 47.5 37 h -10 c -0.276 0 -0.5 -0.224 -0.5 -0.5 s 0.224 -0.5 0.5 -0.5 h 10 c 0.276 0 0.5 0.224 0.5 0.5 S 47.776 37 47.5 37 z" stroke-linecap="round"/>
</g>
<g transform="matrix(9.0909 0 0 9.0909 518.1817 377.2727)" id="480751">
<path style="stroke: none; stroke-width: 1; stroke-dasharray: none; stroke-linecap: butt; stroke-dashoffset: 0; stroke-linejoin: miter; stroke-miterlimit: 4; is-custom-font: none; font-file-url: none; fill: rgb(71,43,41); fill-rule: nonzero; opacity: 1;" transform=" translate(-52, -36.5)" d="M 53.5 37 h -3 c -0.276 0 -0.5 -0.224 -0.5 -0.5 s 0.224 -0.5 0.5 -0.5 h 3 c 0.276 0 0.5 0.224 0.5 0.5 S 53.776 37 53.5 37 z" stroke-linecap="round"/>
</g>
<g transform="matrix(9.0909 0 0 9.0909 502.2726 513.6363)" id="963449">
<path style="stroke: none; stroke-width: 1; stroke-dasharray: none; stroke-linecap: butt; stroke-dashoffset: 0; stroke-linejoin: miter; stroke-miterlimit: 4; is-custom-font: none; font-file-url: none; fill: rgb(71,43,41); fill-rule: nonzero; opacity: 1;" transform=" translate(-50.25, -51.5)" d="M 56.5 55 h -14 c -0.154 0 -0.299 -0.071 -0.394 -0.192 s -0.128 -0.279 -0.091 -0.429 l 1.5 -6 C 43.571 48.156 43.771 48 44 48 h 14 c 0.154 0 0.299 0.071 0.394 0.192 s 0.128 0.279 0.091 0.429 l -1.5 6 C 56.929 54.844 56.729 55 56.5 55 z M 43.141 54 h 12.969 l 1.25 -5 H 44.391 L 43.141 54 z" stroke-linecap="round"/>
</g>
</svg>