<svg xmlns="http://www.w3.org/2000/svg" xmlns:xlink="http://www.w3.org/1999/xlink" version="1.1" width="1000" height="1000" viewBox="0 0 1000 1000" xml:space="preserve">
<desc>Created with Fabric.js 3.5.0</desc>
<defs>
</defs>
<rect x="0" y="0" width="100%" height="100%" fill="#ffffff"/>
<g transform="matrix(9.0909 0 0 9.0909 415.9441 306.8182)" id="527604">
<path style="stroke: none; stroke-width: 1; stroke-dasharray: none; stroke-linecap: butt; stroke-dashoffset: 0; stroke-linejoin: miter; stroke-miterlimit: 4; is-custom-font: none; font-file-url: none; fill: rgb(71,43,41); fill-rule: nonzero; opacity: 1;" transform=" translate(-40.7538, -28.75)" d="M 41.883 27.5 c -1.326 0 -2.508 0.897 -2.874 2.182 c -0.038 0.133 0.039 0.271 0.172 0.309 C 39.205 29.997 39.228 30 39.25 30 c 0.109 0 0.209 -0.072 0.24 -0.182 C 39.795 28.748 40.779 28 41.883 28 c 0.117 0 0.23 0.014 0.342 0.029 c 0.012 0.002 0.023 0.003 0.035 0.003 c 0.121 0 0.229 -0.092 0.246 -0.217 c 0.019 -0.137 -0.077 -0.263 -0.214 -0.281 C 42.158 27.516 42.022 27.5 41.883 27.5 L 41.883 27.5 z" stroke-linecap="round"/>
</g>
<g transform="matrix(9.0909 0 0 9.0909 681.8181 295.4545)" id="764269">
<path style="stroke: none; stroke-width: 1; stroke-dasharray: none; stroke-linecap: butt; stroke-dashoffset: 0; stroke-linejoin: miter; stroke-miterlimit: 4; is-custom-font: none; font-file-url: none; fill: rgb(255,255,255); fill-rule: nonzero; opacity: 1;" transform=" translate(-70, -27.5)" d="M 70.5 28 h -1 c -0.276 0 -0.5 -0.224 -0.5 -0.5 s 0.224 -0.5 0.5 -0.5 h 1 c 0.276 0 0.5 0.224 0.5 0.5 S 70.776 28 70.5 28 z" stroke-linecap="round"/>
</g>
<g transform="matrix(9.0909 0 0 9.0909 649.4318 295.4545)" id="979226">
<path style="stroke: none; stroke-width: 1; stroke-dasharray: none; stroke-linecap: butt; stroke-dashoffset: 0; stroke-linejoin: miter; stroke-miterlimit: 4; is-custom-font: none; font-file-url: none; fill: rgb(255,255,255); fill-rule: nonzero; opacity: 1;" transform=" translate(-66.4375, -27.5)" d="M 67.375 28 H 65.5 c -0.276 0 -0.5 -0.224 -0.5 -0.5 s 0.224 -0.5 0.5 -0.5 h 1.875 c 0.276 0 0.5 0.224 0.5 0.5 S 67.651 28 67.375 28 z" stroke-linecap="round"/>
</g>
<g transform="matrix(9.0909 0 0 9.0909 518.1862 522.7271)" id="476820">
<path style="stroke: none; stroke-width: 1; stroke-dasharray: none; stroke-linecap: butt; stroke-dashoffset: 0; stroke-linejoin: miter; stroke-miterlimit: 4; is-custom-font: none; font-file-url: none; fill: rgb(85,167,249); fill-rule: nonzero; opacity: 1;" transform=" translate(-52.0005, -52.5)" d="M 37.727 77.3 c -2.771 0 -5.026 -2.215 -5.026 -4.937 V 32.637 c 0 -2.723 2.255 -4.937 5.026 -4.937 h 20.709 L 71.3 40.365 v 31.998 c 0 2.723 -2.255 4.937 -5.026 4.937 C 66.274 77.3 37.727 77.3 37.727 77.3 z" stroke-linecap="round"/>
</g>
<g transform="matrix(9.0909 0 0 9.0909 631.8181 477.0772)" id="269648">
<polygon style="stroke: none; stroke-width: 1; stroke-dasharray: none; stroke-linecap: butt; stroke-dashoffset: 0; stroke-linejoin: miter; stroke-miterlimit: 4; is-custom-font: none; font-file-url: none; fill: rgb(45,128,211); fill-rule: nonzero; opacity: 1;" points="-6.543,-6.5425 6.543,6.5425 6.543,-6.4675 "/>
</g>
<g transform="matrix(9.0909 0 0 9.0909 633.9909 355.1181)" id="237717">
<polyline style="stroke: none; stroke-width: 1; stroke-dasharray: none; stroke-linecap: butt; stroke-dashoffset: 0; stroke-linejoin: miter; stroke-miterlimit: 4; is-custom-font: none; font-file-url: none; fill: rgb(170,225,226); fill-rule: nonzero; opacity: 1;" points="-6.303,-6.363 -6.303,6.363 6.303,6.363 "/>
</g>
<g transform="matrix(9.0909 0 0 9.0909 633.9863 355.1135)" id="648281">
<path style="stroke: none; stroke-width: 1; stroke-dasharray: none; stroke-linecap: butt; stroke-dashoffset: 0; stroke-linejoin: miter; stroke-miterlimit: 4; is-custom-font: none; font-file-url: none; fill: rgb(71,43,41); fill-rule: nonzero; opacity: 1;" transform=" translate(-64.7385, -34.0625)" d="M 71.042 41.125 H 58.436 c -0.387 0 -0.7 -0.313 -0.7 -0.7 V 27.7 c 0 -0.387 0.313 -0.7 0.7 -0.7 s 0.7 0.313 0.7 0.7 v 12.025 h 11.905 c 0.387 0 0.7 0.313 0.7 0.7 S 71.428 41.125 71.042 41.125 z" stroke-linecap="round"/>
</g>
<g transform="matrix(9.0909 0 0 9.0909 518.1816 522.727)" id="406994">
<path style="stroke: none; stroke-width: 1; stroke-dasharray: none; stroke-linecap: butt; stroke-dashoffset: 0; stroke-linejoin: miter; stroke-miterlimit: 4; is-custom-font: none; font-file-url: none; fill: rgb(71,43,41); fill-rule: nonzero; opacity: 1;" transform=" translate(-52, -52.5)" d="M 58.149 28.4 l 6.339 6.241 l 6.112 6.017 v 31.705 c 0 2.336 -1.941 4.237 -4.326 4.237 H 37.726 c -2.386 0 -4.326 -1.901 -4.326 -4.237 V 32.637 c 0 -2.336 1.941 -4.237 4.326 -4.237 h 0.832 h 7.869 L 58.149 28.4 M 58.723 27 H 46.427 h -7.869 h -0.832 C 34.577 27 32 29.536 32 32.637 v 39.726 c 0 3.1 2.577 5.637 5.726 5.637 h 28.547 C 69.423 78 72 75.464 72 72.363 V 40.071 C 66.836 34.988 63.886 32.083 58.723 27 L 58.723 27 z" stroke-linecap="round"/>
</g>
<g transform="matrix(9.0909 0 0 9.0909 459.0909 331.8182)" id="890430">
<path style="stroke: none; stroke-width: 1; stroke-dasharray: none; stroke-linecap: butt; stroke-dashoffset: 0; stroke-linejoin: miter; stroke-miterlimit: 4; is-custom-font: none; font-file-url: none; fill: rgb(71,43,41); fill-rule: nonzero; opacity: 1;" transform=" translate(-45.5, -31.5)" d="M 48.5 31.75 h -6 c -0.138 0 -0.25 -0.112 -0.25 -0.25 s 0.112 -0.25 0.25 -0.25 h 6 c 0.138 0 0.25 0.112 0.25 0.25 S 48.638 31.75 48.5 31.75 z" stroke-linecap="round"/>
</g>
<g transform="matrix(9.0909 0 0 9.0909 518.1862 522.7271)" id="479929">
<path style="stroke: none; stroke-width: 1; stroke-dasharray: none; stroke-linecap: butt; stroke-dashoffset: 0; stroke-linejoin: miter; stroke-miterlimit: 4; is-custom-font: none; font-file-url: none; fill: rgb(71,43,41); fill-rule: nonzero; opacity: 1;" transform=" translate(-52.0005, -52.5)" d="M 64.781 73.75 H 39.219 c -1.637 0 -2.969 -1.332 -2.969 -2.969 V 34.219 c 0 -1.637 1.332 -2.969 2.969 -2.969 H 40.5 c 0.138 0 0.25 0.112 0.25 0.25 s -0.112 0.25 -0.25 0.25 h -1.281 c -1.361 0 -2.469 1.107 -2.469 2.469 v 36.563 c 0 1.361 1.107 2.469 2.469 2.469 h 25.563 c 1.361 0 2.469 -1.107 2.469 -2.469 V 59.5 c 0 -0.138 0.112 -0.25 0.25 -0.25 s 0.25 0.112 0.25 0.25 v 11.281 C 67.75 72.418 66.418 73.75 64.781 73.75 z" stroke-linecap="round"/>
</g>
<g transform="matrix(9.0909 0 0 9.0909 659.0909 545.4545)" id="643864">
<path style="stroke: none; stroke-width: 1; stroke-dasharray: none; stroke-linecap: butt; stroke-dashoffset: 0; stroke-linejoin: miter; stroke-miterlimit: 4; is-custom-font: none; font-file-url: none; fill: rgb(71,43,41); fill-rule: nonzero; opacity: 1;" transform=" translate(-67.5, -55)" d="M 67.5 57.75 c -0.138 0 -0.25 -0.112 -0.25 -0.25 v -5 c 0 -0.138 0.112 -0.25 0.25 -0.25 s 0.25 0.112 0.25 0.25 v 5 C 67.75 57.638 67.638 57.75 67.5 57.75 z" stroke-linecap="round"/>
</g>
<g transform="matrix(9.0909 0 0 9.0909 659.0909 490.5272)" id="950120">
<path style="stroke: none; stroke-width: 1; stroke-dasharray: none; stroke-linecap: butt; stroke-dashoffset: 0; stroke-linejoin: miter; stroke-miterlimit: 4; is-custom-font: none; font-file-url: none; fill: rgb(71,43,41); fill-rule: nonzero; opacity: 1;" transform=" translate(-67.5, -48.958)" d="M 67.5 50.333 c -0.138 0 -0.25 -0.112 -0.25 -0.25 v -2.25 c 0 -0.138 0.112 -0.25 0.25 -0.25 s 0.25 0.112 0.25 0.25 v 2.25 C 67.75 50.221 67.638 50.333 67.5 50.333 z" stroke-linecap="round"/>
</g>
<g transform="matrix(9.0909 0 0 9.0909 518.1909 586.3635)" id="884247">
<path style="stroke: none; stroke-width: 1; stroke-dasharray: none; stroke-linecap: butt; stroke-dashoffset: 0; stroke-linejoin: miter; stroke-miterlimit: 4; is-custom-font: none; font-file-url: none; fill: rgb(255,255,255); fill-rule: nonzero; opacity: 1;" transform=" translate(-52.001, -59.5)" d="M 41.001 52.5 h 22 v 2 h -22 V 52.5 z M 41.001 56.5 h 22 v 2 h -22 V 56.5 z M 41.001 60.5 h 22 v 2 h -22 V 60.5 z M 41.001 64.5 h 14 v 2 h -14 V 64.5 z" stroke-linecap="round"/>
</g>
<g transform="matrix(9.0909 0 0 9.0909 518.1817 531.8182)" id="419740">
<path style="stroke: none; stroke-width: 1; stroke-dasharray: none; stroke-linecap: butt; stroke-dashoffset: 0; stroke-linejoin: miter; stroke-miterlimit: 4; is-custom-font: none; font-file-url: none; fill: rgb(71,43,41); fill-rule: nonzero; opacity: 1;" transform=" translate(-52, -53.5)" d="M 63 54.75 H 41 c -0.138 0 -0.25 -0.112 -0.25 -0.25 v -2 c 0 -0.138 0.112 -0.25 0.25 -0.25 h 22 c 0.138 0 0.25 0.112 0.25 0.25 v 2 C 63.25 54.638 63.139 54.75 63 54.75 z M 41.25 54.25 h 21.5 v -1.5 h -21.5 V 54.25 z" stroke-linecap="round"/>
</g>
<g transform="matrix(9.0909 0 0 9.0909 518.1817 568.1818)" id="220045">
<path style="stroke: none; stroke-width: 1; stroke-dasharray: none; stroke-linecap: butt; stroke-dashoffset: 0; stroke-linejoin: miter; stroke-miterlimit: 4; is-custom-font: none; font-file-url: none; fill: rgb(71,43,41); fill-rule: nonzero; opacity: 1;" transform=" translate(-52, -57.5)" d="M 63 58.75 H 41 c -0.138 0 -0.25 -0.112 -0.25 -0.25 v -2 c 0 -0.138 0.112 -0.25 0.25 -0.25 h 22 c 0.138 0 0.25 0.112 0.25 0.25 v 2 C 63.25 58.638 63.139 58.75 63 58.75 z M 41.25 58.25 h 21.5 v -1.5 h -21.5 V 58.25 z" stroke-linecap="round"/>
</g>
<g transform="matrix(9.0909 0 0 9.0909 518.1817 604.5455)" id="862631">
<path style="stroke: none; stroke-width: 1; stroke-dasharray: none; stroke-linecap: butt; stroke-dashoffset: 0; stroke-linejoin: miter; stroke-miterlimit: 4; is-custom-font: none; font-file-url: none; fill: rgb(71,43,41); fill-rule: nonzero; opacity: 1;" transform=" translate(-52, -61.5)" d="M 63 62.75 H 41 c -0.138 0 -0.25 -0.112 -0.25 -0.25 v -2 c 0 -0.138 0.112 -0.25 0.25 -0.25 h 22 c 0.138 0 0.25 0.112 0.25 0.25 v 2 C 63.25 62.638 63.139 62.75 63 62.75 z M 41.25 62.25 h 21.5 v -1.5 h -21.5 V 62.25 z" stroke-linecap="round"/>
</g>
<g transform="matrix(9.0909 0 0 9.0909 481.8181 640.9091)" id="668978">
<path style="stroke: none; stroke-width: 1; stroke-dasharray: none; stroke-linecap: butt; stroke-dashoffset: 0; stroke-linejoin: miter; stroke-miterlimit: 4; is-custom-font: none; font-file-url: none; fill: rgb(71,43,41); fill-rule: nonzero; opacity: 1;" transform=" translate(-48, -65.5)" d="M 55 66.75 H 41 c -0.138 0 -0.25 -0.112 -0.25 -0.25 v -2 c 0 -0.138 0.112 -0.25 0.25 -0.25 h 14 c 0.138 0 0.25 0.112 0.25 0.25 v 2 C 55.25 66.638 55.139 66.75 55 66.75 z M 41.25 66.25 h 13.5 v -1.5 h -13.5 V 66.25 z" stroke-linecap="round"/>
</g>
</svg>