<svg xmlns="http://www.w3.org/2000/svg" xmlns:xlink="http://www.w3.org/1999/xlink" version="1.1" width="1000" height="1000" viewBox="0 0 1000 1000" xml:space="preserve">
<desc>Created with Fabric.js 3.5.0</desc>
<defs>
</defs>
<rect x="0" y="0" width="100%" height="100%" fill="#ffffff"/>
<g transform="matrix(9.0909 0 0 9.0909 358.0636 554.6044)" id="158177">
<path style="stroke: none; stroke-width: 1; stroke-dasharray: none; stroke-linecap: butt; stroke-dashoffset: 0; stroke-linejoin: miter; stroke-miterlimit: 4; is-custom-font: none; font-file-url: none; fill: rgb(120,160,207); fill-rule: nonzero; opacity: 1;" transform=" translate(-34.387, -56.0065)" d="M 39.775 50.315 v 19.807 h -7.837 c -1.626 0 -2.939 -1.313 -2.939 -2.939 V 41.891 L 39.775 50.315 z" stroke-linecap="round"/>
</g>
<g transform="matrix(9.0909 0 0 9.0909 358.0682 428.1796)" id="479869">
<path style="stroke: none; stroke-width: 1; stroke-dasharray: none; stroke-linecap: butt; stroke-dashoffset: 0; stroke-linejoin: miter; stroke-miterlimit: 4; is-custom-font: none; font-file-url: none; fill: rgb(196,33,31); fill-rule: nonzero; opacity: 1;" transform=" translate(-34.3875, -42.0998)" d="M 39.775 36.64 v 13.675 L 29 41.891 v -2.625 c 0 -1.254 0.431 -2.41 1.146 -3.321 c 1.774 -2.305 5.258 -2.768 7.563 -0.921 L 39.775 36.64 z" stroke-linecap="round"/>
</g>
<g transform="matrix(9.0909 0 0 9.0909 527.2681 487.6363)" id="830103">
<polygon style="stroke: none; stroke-width: 1; stroke-dasharray: none; stroke-linecap: butt; stroke-dashoffset: 0; stroke-linejoin: miter; stroke-miterlimit: 4; is-custom-font: none; font-file-url: none; fill: rgb(235,66,53); fill-rule: nonzero; opacity: 1;" points="13.2245,-12 13.2245,1.665 0.0005,12 -13.2245,1.675 -13.2245,-12 0.0005,-1.675 "/>
</g>
<g transform="matrix(9.0909 0 0 9.0909 696.4786 428.1034)" id="469665">
<path style="stroke: none; stroke-width: 1; stroke-dasharray: none; stroke-linecap: butt; stroke-dashoffset: 0; stroke-linejoin: miter; stroke-miterlimit: 4; is-custom-font: none; font-file-url: none; fill: rgb(241,188,25); fill-rule: nonzero; opacity: 1;" transform=" translate(-71.6127, -42.0914)" d="M 77 39.265 v 2.625 l -10.775 8.415 V 36.64 l 2.067 -1.616 c 0.99 -0.774 2.155 -1.146 3.321 -1.146 C 74.512 33.85 77.033 36.313 77 39.265 z" stroke-linecap="round"/>
</g>
<g transform="matrix(9.0909 0 0 9.0909 696.4727 554.609)" id="505612">
<path style="stroke: none; stroke-width: 1; stroke-dasharray: none; stroke-linecap: butt; stroke-dashoffset: 0; stroke-linejoin: miter; stroke-miterlimit: 4; is-custom-font: none; font-file-url: none; fill: rgb(156,167,76); fill-rule: nonzero; opacity: 1;" transform=" translate(-71.612, -56.007)" d="M 77 41.891 v 25.293 c 0 1.626 -1.313 2.939 -2.939 2.939 h -7.837 V 50.305 L 77 41.891 z" stroke-linecap="round"/>
</g>
<g transform="matrix(9.0909 0 0 9.0909 335.8091 647.3091)" id="711910">
<line style="stroke: rgb(71,43,41); stroke-width: 0.75; stroke-dasharray: none; stroke-linecap: round; stroke-dashoffset: 0; stroke-linejoin: round; stroke-miterlimit: 10; is-custom-font: none; font-file-url: none; fill: none; fill-rule: nonzero; opacity: 1;" x1="0" y1="-0.9799999999999969" x2="0" y2="0.9799999999999969"/>
</g>
<g transform="matrix(9.0909 0 0 9.0909 335.8091 598.3318)" id="173072">
<line style="stroke: rgb(71,43,41); stroke-width: 0.75; stroke-dasharray: none; stroke-linecap: round; stroke-dashoffset: 0; stroke-linejoin: round; stroke-miterlimit: 10; is-custom-font: none; font-file-url: none; fill: none; fill-rule: nonzero; opacity: 1;" x1="0" y1="-1.4695" x2="0" y2="1.4695"/>
</g>
<g transform="matrix(9.0909 0 0 9.0909 335.8091 526.8363)" id="370631">
<line style="stroke: rgb(71,43,41); stroke-width: 0.75; stroke-dasharray: none; stroke-linecap: round; stroke-dashoffset: 0; stroke-linejoin: round; stroke-miterlimit: 10; is-custom-font: none; font-file-url: none; fill: none; fill-rule: nonzero; opacity: 1;" x1="0" y1="-3.401" x2="0" y2="3.401"/>
</g>
<g transform="matrix(9.0909 0 0 9.0909 358.0636 518.1816)" id="550913">
<path style="stroke: rgb(71,43,41); stroke-width: 1.4; stroke-dasharray: none; stroke-linecap: butt; stroke-dashoffset: 0; stroke-linejoin: round; stroke-miterlimit: 10; is-custom-font: none; font-file-url: none; fill: none; fill-rule: nonzero; opacity: 1;" transform=" translate(-34.387, -52)" d="M 39.775 36.867 v 33.256 h -7.837 c -1.623 0 -2.939 -1.316 -2.939 -2.939 V 39.265 c 0 -2.976 2.412 -5.388 5.388 -5.388" stroke-linecap="round"/>
</g>
<g transform="matrix(9.0909 0 0 9.0909 527.2725 412.9413)" id="397797">
<path style="stroke: rgb(71,43,41); stroke-width: 1.4; stroke-dasharray: none; stroke-linecap: butt; stroke-dashoffset: 0; stroke-linejoin: round; stroke-miterlimit: 10; is-custom-font: none; font-file-url: none; fill: none; fill-rule: nonzero; opacity: 1;" transform=" translate(-53, -40.4236)" d="M 75.858 35.948 c -1.832 -2.345 -5.218 -2.76 -7.563 -0.929 L 53 46.97 l 0 0 L 37.705 35.02 c -2.345 -1.832 -5.731 -1.416 -7.563 0.929" stroke-linecap="round"/>
</g>
<g transform="matrix(9.0909 0 0 9.0909 559.8454 537.0909)" id="425369">
<line style="stroke: rgb(71,43,41); stroke-width: 0.75; stroke-dasharray: none; stroke-linecap: round; stroke-dashoffset: 0; stroke-linejoin: round; stroke-miterlimit: 10; is-custom-font: none; font-file-url: none; fill: none; fill-rule: nonzero; opacity: 1;" x1="-2.2270000000000003" y1="1.7620000000000005" x2="2.2270000000000003" y2="-1.7620000000000005"/>
</g>
<g transform="matrix(9.0909 0 0 9.0909 505.05 545.2818)" id="76006">
<line style="stroke: rgb(71,43,41); stroke-width: 0.75; stroke-dasharray: none; stroke-linecap: round; stroke-dashoffset: 0; stroke-linejoin: round; stroke-miterlimit: 10; is-custom-font: none; font-file-url: none; fill: none; fill-rule: nonzero; opacity: 1;" x1="-1.7334999999999994" y1="-1.3719999999999999" x2="1.7334999999999994" y2="1.3719999999999999"/>
</g>
<g transform="matrix(9.0909 0 0 9.0909 464.8636 513.4818)" id="11303">
<line style="stroke: rgb(71,43,41); stroke-width: 0.75; stroke-dasharray: none; stroke-linecap: round; stroke-dashoffset: 0; stroke-linejoin: round; stroke-miterlimit: 10; is-custom-font: none; font-file-url: none; fill: none; fill-rule: nonzero; opacity: 1;" x1="-1.1499999999999986" y1="-0.9100000000000001" x2="1.1499999999999986" y2="0.9100000000000001"/>
</g>
<g transform="matrix(9.0909 0 0 9.0909 435.9273 490.5818)" id="313213">
<line style="stroke: rgb(71,43,41); stroke-width: 0.75; stroke-dasharray: none; stroke-linecap: round; stroke-dashoffset: 0; stroke-linejoin: round; stroke-miterlimit: 10; is-custom-font: none; font-file-url: none; fill: none; fill-rule: nonzero; opacity: 1;" x1="-0.49599999999999866" y1="-0.3930000000000007" x2="0.49599999999999866" y2="0.3930000000000007"/>
</g>
<g transform="matrix(9.0909 0 0 9.0909 527.1952 512.0863)" id="909821">
<polyline style="stroke: rgb(71,43,41); stroke-width: 1.4; stroke-dasharray: none; stroke-linecap: butt; stroke-dashoffset: 0; stroke-linejoin: round; stroke-miterlimit: 10; is-custom-font: none; font-file-url: none; fill: none; fill-rule: nonzero; opacity: 1;" points="-23.8345,-9.3145 0.0085,9.3145 0.0085,9.3145 23.8345,-9.3005 "/>
</g>
<g transform="matrix(9.0909 0 0 9.0909 696.4727 518.1862)" id="541534">
<path style="stroke: rgb(71,43,41); stroke-width: 1.4; stroke-dasharray: none; stroke-linecap: butt; stroke-dashoffset: 0; stroke-linejoin: round; stroke-miterlimit: 10; is-custom-font: none; font-file-url: none; fill: none; fill-rule: nonzero; opacity: 1;" transform=" translate(-71.612, -52.0005)" d="M 71.612 33.878 c 2.976 0 5.388 2.412 5.388 5.388 v 27.918 c 0 1.623 -1.316 2.939 -2.939 2.939 h -7.837 V 36.8" stroke-linecap="round"/>
</g>
</svg>